<?xml version="1.0" standalone="no"?>
<!DOCTYPE svg PUBLIC "-//W3C//DTD SVG 20010904//EN"
 "http://www.w3.org/TR/2001/REC-SVG-20010904/DTD/svg10.dtd">
<svg version="1.0" xmlns="http://www.w3.org/2000/svg"
 width="2285.000000pt" height="402.000000pt" viewBox="0 0 2285.000000 402.000000"
 preserveAspectRatio="xMidYMid meet">

<g transform="translate(0.000000,402.000000) scale(0.100000,-0.100000)"
fill="#000000" stroke="none">
<path d="M0 2010 l0 -2010 11425 0 11425 0 0 2010 0 2010 -11425 0 -11425 0 0
-2010z m2237 1246 c8 -8 -35 -579 -45 -587 -8 -7 -1113 -161 -1118 -156 -7 7
32 110 70 186 145 294 413 493 750 557 71 13 330 14 343 0z m8293 -1026 l0
-1040 -25 0 -25 0 0 1040 0 1040 25 0 25 0 0 -1040z m2180 1007 c269 -70 467
-226 595 -470 51 -97 107 -267 89 -267 -4 0 -49 23 -101 52 l-94 52 -51 97
c-81 156 -193 267 -343 342 -258 128 -618 105 -853 -55 -122 -83 -230 -203
-302 -334 -33 -61 -42 -69 -120 -114 -47 -26 -86 -45 -88 -41 -1 4 9 43 23 86
107 326 344 562 649 645 118 33 182 39 346 35 124 -3 174 -8 250 -28z m-10141
-98 c139 -78 269 -199 352 -324 48 -72 104 -183 97 -191 -3 -2 -160 4 -348 16
-189 11 -356 20 -371 20 l-27 0 109 252 c60 138 109 253 109 255 0 10 30 -1
79 -28z m4137 -15 c15 -11 37 -33 48 -48 20 -26 21 -40 21 -321 0 -281 -1
-295 -21 -321 -49 -66 -58 -69 -252 -69 -198 0 -225 7 -262 68 -19 30 -20 52
-20 322 0 270 1 292 20 322 37 62 80 73 282 70 141 -2 159 -4 184 -23z m-2638
2 c15 -8 38 -26 52 -41 23 -25 25 -35 28 -139 l4 -113 -32 -36 c-29 -34 -30
-36 -12 -49 44 -32 52 -58 52 -168 0 -119 -14 -154 -72 -190 -30 -18 -51 -20
-255 -20 l-223 0 0 385 0 385 215 0 c166 0 222 -3 243 -14z m742 -56 l0 -70
-175 0 -176 0 3 -82 3 -83 143 -3 142 -3 0 -69 0 -70 -145 0 -145 0 0 -90 0
-90 175 0 175 0 0 -70 0 -70 -250 0 -250 0 0 385 0 385 250 0 250 0 0 -70z
m609 52 c70 -35 76 -55 76 -230 0 -147 -1 -159 -22 -188 -37 -51 -84 -64 -236
-64 l-132 0 3 -135 4 -135 -81 0 -81 0 0 385 0 385 218 0 c187 0 222 -2 251
-18z m711 -52 l0 -70 -105 0 -105 0 0 -315 0 -315 -75 0 -75 0 0 315 0 315
-100 0 -100 0 0 70 0 70 280 0 280 0 0 -70z m1380 -315 l0 -385 -75 0 -75 0 0
315 0 315 -105 0 c-77 0 -105 -3 -105 -12 -1 -70 -41 -470 -49 -492 -31 -80
-97 -125 -183 -126 l-48 0 0 70 0 70 35 0 c28 0 37 5 44 24 7 18 61 547 61
597 0 5 100 9 250 9 l250 0 0 -385z m640 315 l0 -70 -175 0 -175 0 0 -86 c0
-75 2 -85 18 -83 9 1 72 1 140 0 l122 -1 0 -70 0 -70 -140 0 -140 0 0 -90 0
-90 175 0 175 0 0 -70 0 -70 -255 0 -255 0 0 385 0 385 255 0 255 0 0 -70z
m660 0 l0 -70 -105 0 -105 0 0 -315 0 -315 -75 0 -75 0 0 315 0 315 -100 0
-100 0 0 70 0 70 280 0 280 0 0 -70z m242 -67 l3 -138 150 -5 c168 -6 190 -13
220 -76 14 -29 16 -61 13 -184 l-3 -150 -38 -37 -37 -38 -230 -3 -230 -3 0
385 0 386 75 0 74 0 3 -137z m648 -248 l0 -385 -80 0 -80 0 0 385 0 385 80 0
80 0 0 -385z m2867 -422 c25 -132 28 -143 49 -143 12 0 308 20 658 45 351 25
645 45 654 44 9 0 -323 -94 -738 -209 l-755 -210 -747 188 c-410 103 -745 189
-743 190 2 2 299 -9 659 -24 361 -15 659 -25 662 -21 3 3 40 183 81 399 40
216 76 400 80 408 5 13 63 -264 140 -667z m-252 615 c-3 -18 -25 -157 -50
-308 -25 -151 -50 -299 -56 -327 l-10 -53 -140 0 -139 0 0 60 0 59 88 3 87 3
3 33 3 32 -95 0 c-82 0 -95 2 -100 18 -11 40 -28 264 -20 272 5 4 39 24 77 45
l67 37 0 -49 c0 -26 3 -78 7 -115 l6 -68 42 0 42 0 19 152 19 152 70 42 c39
24 74 44 78 44 4 0 5 -15 2 -32z m359 -64 c15 -9 22 -38 37 -140 27 -178 25
-174 54 -174 30 0 32 10 38 138 2 51 7 95 9 98 3 3 34 -11 69 -30 l64 -35 -9
-241 -9 -240 -128 0 -128 0 -10 38 c-22 90 -27 82 49 82 66 0 68 1 73 27 3 16
3 31 0 35 -2 5 -37 8 -78 8 l-73 0 -16 73 c-9 39 -33 156 -55 260 l-39 187 67
-37 c36 -21 75 -43 85 -49z m6940 41 c3 -8 16 -15 29 -15 14 0 30 7 37 15 7 8
28 15 46 15 45 0 45 -21 0 -66 -29 -29 -41 -34 -80 -34 -36 0 -52 6 -75 28
-16 15 -32 37 -36 50 -6 20 -3 22 33 22 26 0 42 -5 46 -15z m-1198 -116 c17
-5 43 -22 58 -38 l27 -28 -32 -26 c-32 -25 -33 -25 -56 -7 -60 47 -167 23
-194 -43 -56 -134 79 -244 200 -164 l40 27 22 -31 c21 -29 21 -31 3 -51 -67
-74 -234 -77 -313 -5 -63 58 -79 173 -37 264 47 100 156 140 282 102z m-3927
-94 c35 -57 66 -103 70 -101 3 2 26 49 51 105 l45 101 48 0 c26 0 47 -2 47 -5
0 -19 -181 -375 -200 -393 -33 -31 -73 -36 -115 -17 -41 20 -44 33 -12 63 15
15 30 19 46 15 34 -9 44 15 22 52 -10 16 -54 87 -99 158 l-82 127 58 0 57 0
64 -105z m641 -110 l0 -215 -45 0 -45 0 0 170 0 170 -68 0 -69 0 -6 -92 c-11
-168 -45 -234 -126 -245 l-41 -6 0 46 c0 40 3 46 22 49 39 5 52 50 56 201 l4
137 159 0 159 0 0 -215z m391 10 c48 -110 88 -206 88 -212 1 -9 -14 -13 -42
-13 -42 0 -45 2 -62 40 l-18 40 -92 0 -93 0 -16 -40 c-15 -38 -18 -40 -61 -40
-25 0 -45 3 -45 7 0 4 41 101 92 216 l92 208 34 -3 34 -3 89 -200z m229 120
l0 -85 100 0 100 0 0 85 0 85 45 0 45 0 0 -215 0 -215 -45 0 -45 0 0 85 0 85
-100 0 -100 0 0 -85 0 -85 -45 0 -45 0 0 215 0 215 45 0 45 0 0 -85z m726 28
c19 -32 49 -80 66 -108 l31 -50 50 108 50 107 48 0 48 0 -50 -107 c-79 -167
-129 -267 -146 -285 -38 -43 -99 -46 -144 -9 l-24 20 30 25 c20 16 37 23 52
19 15 -3 25 0 29 11 6 14 -24 66 -174 304 -14 22 -14 22 42 22 l56 0 36 -57z
m664 -113 l0 -170 24 0 c23 0 24 -2 22 -77 l-1 -78 -42 -3 -43 -3 0 35 0 36
-140 0 -140 0 0 -35 c0 -34 -1 -35 -40 -35 l-40 0 0 80 c0 78 1 80 24 80 22 0
26 7 40 69 9 38 19 114 22 170 l7 101 154 0 153 0 0 -170z m338 155 c81 -34
122 -101 122 -197 -1 -148 -92 -228 -246 -215 -42 3 -73 12 -103 31 -56 36
-62 53 -25 82 28 23 29 23 49 5 31 -30 98 -44 144 -31 36 10 91 58 91 81 0 5
-43 9 -95 9 l-95 0 0 40 0 40 90 0 c100 0 112 10 64 55 -45 41 -127 41 -191
-1 -24 -15 -26 -15 -54 12 l-29 28 23 24 c50 49 179 68 255 37z m282 -70 l0
-85 95 0 95 0 0 85 0 85 45 0 45 0 0 -215 0 -215 -45 0 -45 0 0 85 0 85 -95 0
-95 0 0 -85 0 -85 -45 0 -45 0 0 215 0 215 45 0 45 0 0 -85z m892 4 l3 -81 80
81 81 82 56 -3 57 -3 -84 -90 c-47 -49 -84 -94 -85 -98 0 -4 42 -58 94 -120
l94 -112 -56 -3 c-63 -4 -55 -9 -163 118 -41 48 -48 53 -63 41 -12 -10 -16
-31 -16 -87 l0 -74 -45 0 -45 0 0 215 0 215 45 0 44 0 3 -81z m430 -50 l3
-132 103 132 c101 128 104 131 143 131 l39 0 0 -215 0 -215 -45 0 -44 0 -3
133 -3 132 -105 -132 c-101 -126 -107 -132 -142 -132 l-38 -1 0 215 0 215 45
0 44 0 3 -131z m458 6 c0 -69 4 -125 9 -125 5 0 53 56 107 125 95 120 100 125
136 125 l38 0 0 -215 0 -215 -45 0 -44 0 -3 131 -3 131 -104 -131 c-101 -127
-105 -131 -143 -131 l-38 0 0 215 0 215 45 0 45 0 0 -125z m-3240 -80 l0 -35
-90 0 -90 0 0 35 0 35 90 0 90 0 0 -35z m-13645 -171 c215 -80 403 -150 419
-156 l29 -12 -7 -98 c-19 -268 -131 -506 -326 -691 -140 -132 -324 -228 -507
-263 -100 -19 -304 -18 -401 2 -198 41 -366 130 -513 274 -94 92 -208 246
-192 260 4 4 193 150 418 326 226 175 466 362 535 416 79 62 130 96 140 92 8
-3 191 -71 405 -150z m16505 -253 c0 -19 41 -23 59 -7 20 18 91 22 91 5 0 -6
-15 -26 -34 -45 -29 -29 -41 -34 -81 -34 -57 0 -80 12 -100 50 -21 40 -20 40
25 40 22 0 40 -4 40 -9z m-15074 -105 c58 -35 69 -66 72 -212 3 -115 1 -138
-16 -178 -34 -76 -61 -86 -234 -86 l-148 0 0 -140 0 -140 -75 0 -75 0 0 391 0
390 223 -3 c196 -3 226 -5 253 -22z m681 -2 c60 -44 63 -62 63 -364 0 -249 -2
-279 -19 -310 -37 -69 -53 -75 -239 -78 -187 -4 -224 3 -267 48 l-30 31 -3
295 c-3 331 -1 343 66 382 35 21 47 22 219 20 166 -3 184 -5 210 -24z m672 8
c53 -28 71 -72 71 -169 l0 -83 -75 0 -75 0 0 53 c0 29 -5 58 -12 65 -13 13
-183 17 -212 6 -14 -5 -16 -36 -16 -238 0 -167 3 -235 12 -244 15 -15 181 -16
209 -2 15 9 19 22 19 71 l0 60 73 -3 72 -3 3 -85 c2 -76 0 -90 -20 -120 -41
-61 -73 -70 -245 -70 -179 0 -219 11 -255 69 -23 35 -23 42 -23 321 0 267 1
287 20 319 37 62 68 71 255 71 141 0 170 -3 199 -18z m677 2 c56 -27 74 -68
74 -168 l0 -86 -75 0 -75 0 0 53 c0 29 -5 58 -12 65 -8 8 -47 12 -108 12 -61
0 -100 -4 -108 -12 -9 -9 -12 -76 -12 -240 0 -266 -9 -248 122 -248 105 0 116
8 120 80 l3 55 70 0 70 0 0 -97 c0 -89 -2 -99 -25 -124 -43 -47 -76 -54 -240
-54 -164 0 -197 7 -240 55 l-25 27 -3 299 c-3 288 -2 302 18 333 35 58 65 66
248 66 130 0 171 -3 198 -16z m366 -240 l3 -255 80 138 c43 76 110 191 148
256 l70 118 71 -3 71 -3 3 -382 2 -383 -75 0 -75 0 -2 251 -3 250 -145 -250
-145 -250 -77 -1 -78 0 0 378 c0 208 3 382 7 385 3 4 37 7 74 7 l69 0 2 -256z
m720 4 l3 -253 38 60 c21 33 88 147 149 253 l111 192 74 0 73 0 0 -385 0 -385
-75 0 -75 0 0 252 0 253 -147 -253 -147 -252 -73 0 -73 0 0 385 0 385 70 0 70
0 2 -252z m8782 11 c47 -109 86 -200 86 -203 0 -3 -21 -6 -46 -6 -44 0 -46 2
-62 40 l-17 40 -91 0 -92 0 -16 -40 c-15 -38 -18 -40 -61 -40 -25 0 -45 3 -45
8 0 4 40 97 88 207 82 187 90 200 118 206 16 3 34 1 40 -5 7 -6 51 -99 98
-207z m1356 199 c190 -97 139 -385 -73 -414 -137 -19 -264 111 -243 250 10 63
61 135 116 163 61 30 140 31 200 1z m2040 -199 l0 -209 -45 0 -45 0 0 126 c0
70 -4 124 -9 122 -5 -1 -53 -58 -106 -125 -94 -120 -98 -123 -136 -123 l-39 0
0 210 0 210 45 0 44 0 3 -127 3 -128 100 125 c54 69 103 127 107 131 4 3 24 3
43 1 l35 -4 0 -209z m507 195 c53 -40 66 -120 26 -160 -15 -15 -15 -18 -2 -28
42 -30 51 -101 19 -153 -30 -50 -73 -68 -160 -67 -82 0 -135 20 -178 67 l-23
25 35 22 36 22 31 -23 c82 -58 236 -18 173 45 -11 11 -35 16 -80 16 l-64 0 0
45 0 45 51 0 c63 0 89 13 89 45 0 20 -7 26 -41 35 -45 12 -88 3 -120 -26 -16
-14 -20 -13 -53 8 -20 13 -36 26 -36 30 0 12 67 59 97 68 15 5 60 8 100 7 55
-2 79 -7 100 -23z m1299 -9 c64 -40 96 -101 96 -183 0 -128 -88 -216 -217
-216 -116 -1 -205 79 -213 193 -5 72 10 121 51 168 70 80 189 96 283 38z m506
-143 c3 -159 4 -167 23 -167 18 0 20 -8 23 -77 l3 -78 -46 0 c-45 0 -45 0 -45
35 l0 35 -140 0 -140 0 0 -35 c0 -34 -1 -35 -40 -35 l-40 0 0 81 c0 64 3 80
13 76 8 -3 19 -2 25 2 18 11 41 118 48 220 3 53 7 101 9 106 1 6 59 9 153 7
l152 -3 2 -167z m-7037 -34 c49 -112 90 -206 92 -210 2 -5 -18 -8 -45 -8 -49
0 -50 1 -66 40 l-16 40 -91 0 -90 0 -17 -40 c-16 -39 -19 -40 -65 -40 -27 0
-46 3 -44 8 2 4 43 98 92 210 l88 202 37 0 37 0 88 -202z m425 187 c16 -8 34
-24 40 -34 15 -30 12 -83 -8 -115 -17 -29 -17 -30 5 -52 18 -18 23 -34 23 -74
0 -103 -48 -130 -230 -130 l-120 0 0 210 0 210 130 0 c97 0 139 -4 160 -15z
m220 -110 c0 -69 3 -125 8 -124 4 0 51 56 104 125 96 122 98 124 138 124 l40
0 0 -210 0 -210 -45 0 -45 0 0 125 c0 69 -3 125 -7 125 -5 -1 -52 -57 -106
-125 -96 -122 -100 -125 -138 -125 l-39 0 0 210 0 210 45 0 45 0 0 -125z m910
-40 l0 -165 90 0 90 0 0 165 0 165 45 0 45 0 0 -164 c0 -163 0 -165 23 -168
20 -3 22 -9 25 -80 l3 -78 -46 0 c-45 0 -45 0 -45 35 l0 35 -160 0 -160 0 0
210 0 210 45 0 45 0 0 -165z m462 38 l3 -128 100 127 c100 127 100 127 143
128 l42 0 0 -210 0 -210 -45 0 -45 0 0 125 c0 69 -3 125 -7 125 -5 0 -53 -56
-107 -125 -96 -121 -100 -125 -138 -125 l-38 0 0 210 0 210 45 0 44 0 3 -127z
m948 47 l0 -80 95 0 95 0 0 80 0 80 45 0 45 0 0 -210 0 -210 -45 0 -45 0 0 85
0 85 -95 0 -95 0 0 -85 0 -85 -50 0 -50 0 0 210 0 210 50 0 50 0 0 -80z m460
0 l0 -80 95 0 95 0 0 80 0 80 45 0 45 0 0 -210 0 -210 -45 0 -45 0 0 85 0 85
-95 0 -95 0 0 -85 0 -85 -45 0 -45 0 0 210 0 210 45 0 45 0 0 -80z m460 10 l0
-70 63 0 c115 -1 177 -49 177 -139 0 -55 -17 -87 -59 -114 -31 -19 -53 -23
-153 -26 l-118 -3 0 211 0 211 45 0 45 0 0 -70z m380 -140 l0 -210 -50 0 -50
0 0 210 0 210 50 0 50 0 0 -210z m1332 147 c15 -34 56 -128 92 -209 l65 -148
-48 0 c-46 0 -49 1 -66 40 l-18 40 -91 0 -91 0 -17 -40 c-16 -38 -18 -40 -62
-40 -25 0 -46 2 -46 4 0 1 36 86 81 187 44 101 85 194 90 207 7 17 16 22 46
22 37 0 39 -2 65 -63z m487 48 c27 -14 51 -58 51 -94 0 -9 -8 -33 -18 -52 -18
-36 -18 -36 5 -63 33 -39 32 -104 -3 -145 -34 -40 -77 -51 -211 -51 l-113 0 0
210 0 210 130 0 c96 0 139 -4 159 -15z m-9205 -105 c57 -26 64 -33 81 -76 30
-78 130 -218 212 -294 171 -160 358 -230 610 -230 248 0 417 66 578 225 86 85
142 167 185 274 l27 65 81 38 c59 26 82 33 82 23 0 -23 -50 -156 -87 -230
-131 -263 -324 -430 -589 -511 -83 -26 -101 -28 -274 -28 -218 0 -282 13 -445
93 -206 102 -368 269 -483 498 -35 68 -82 179 -82 191 0 6 38 -9 104 -38z"/>
<path d="M6374 2987 c-2 -7 -3 -116 -2 -242 l3 -230 115 -3 c99 -2 116 0 127
15 18 24 18 444 1 461 -17 17 -237 17 -244 -1z"/>
<path d="M3760 2915 l0 -86 118 3 117 3 3 68 c2 42 -2 74 -9 83 -9 10 -39 14
-120 14 l-109 0 0 -85z"/>
<path d="M3767 2693 c-4 -3 -7 -46 -7 -95 l0 -88 113 0 c75 0 117 4 125 12 7
7 12 41 12 85 0 61 -3 74 -19 83 -21 11 -214 14 -224 3z"/>
<path d="M5110 2893 l0 -108 111 1 c83 1 113 4 120 15 12 19 11 156 -1 180
-10 17 -22 19 -120 19 l-110 0 0 -107z"/>
<path d="M9052 2618 l3 -103 104 -3 c67 -2 108 1 117 9 18 15 20 169 2 187 -8
8 -49 12 -120 12 l-109 0 3 -102z"/>
<path d="M15370 2624 c-14 -32 -26 -62 -28 -66 -2 -4 21 -8 52 -8 31 0 56 3
56 8 -1 4 -13 33 -28 66 l-27 59 -25 -59z"/>
<path d="M16910 2668 c0 -56 -10 -116 -26 -170 -5 -16 3 -18 75 -18 l81 0 0
125 0 125 -65 0 -65 0 0 -62z"/>
<path d="M3760 1855 l0 -106 118 3 117 3 5 77 c8 128 14 123 -123 126 l-117 3
0 -106z"/>
<path d="M4432 1958 c-9 -9 -12 -76 -12 -240 0 -267 -10 -248 134 -248 73 0
98 4 110 16 14 13 16 49 16 234 0 185 -2 221 -16 234 -20 20 -213 23 -232 4z"/>
<path d="M15826 1886 c-14 -33 -24 -61 -22 -63 2 -2 26 -3 54 -1 l50 3 -28 60
-27 60 -27 -59z"/>
<path d="M17178 1984 c-37 -19 -58 -63 -58 -118 0 -87 81 -144 165 -116 92 31
103 190 15 235 -36 19 -87 19 -122 -1z"/>
<path d="M20991 1974 c-60 -50 -63 -158 -5 -203 91 -71 211 -3 201 113 -4 42
-10 55 -41 83 -47 43 -109 46 -155 7z"/>
<path d="M21466 1978 c-3 -13 -6 -43 -6 -68 0 -43 -8 -89 -24 -137 -7 -23 -6
-23 76 -23 l83 0 -3 125 -3 125 -58 0 c-52 0 -59 -2 -65 -22z"/>
<path d="M14502 1887 c-12 -29 -22 -56 -22 -60 0 -4 23 -7 50 -7 28 0 50 2 50
5 0 8 -49 115 -53 115 -2 0 -13 -24 -25 -53z"/>
<path d="M14890 1960 l0 -40 54 0 c70 0 86 7 86 36 0 31 -27 44 -89 44 l-51 0
0 -40z"/>
<path d="M14902 1832 c-7 -2 -12 -21 -12 -43 l0 -39 68 0 c40 0 73 5 80 12 16
16 15 43 0 56 -14 10 -115 21 -136 14z"/>
<path d="M18542 1803 l3 -58 50 3 c68 4 83 10 90 33 16 48 -26 79 -107 79
l-39 0 3 -57z"/>
<path d="M20157 1883 l-26 -58 50 -3 c28 -2 53 -1 55 1 5 4 -43 117 -49 117
-2 0 -16 -26 -30 -57z"/>
<path d="M20547 1993 c-4 -3 -7 -21 -7 -40 l0 -33 59 0 c33 0 66 3 75 6 22 9
20 51 -3 64 -22 11 -114 14 -124 3z"/>
<path d="M20544 1831 c-2 -2 -4 -22 -4 -43 l0 -38 75 0 c64 0 76 3 85 20 7 14
8 26 0 39 -8 16 -23 20 -81 23 -39 2 -73 1 -75 -1z"/>
</g>
</svg>
