<svg xmlns="http://www.w3.org/2000/svg">
<defs><style>.logo__UUAZ{fill:#040305}</style></defs>
<symbol xmlns="http://www.w3.org/2000/svg" id="logoVR" viewBox="0 0 845.6 201.81">
<path d="M113.88 65.54L8.15 147.95a100.92 100.92 0 00190.19-47c0-1.39 0-2.77-.09-4.15zm25.39-56.48l-21.79 50.5 73.85 4.31a101.26 101.26 0 00-52.06-54.81zm-24.21-7.52A101 101 0 000 74.6l110.54-15.34zm179.68 48.41a12.45 12.45 0 006.67-11.43V27.73c0-8.89-6.14-15-15-15h-38.54v76.15h39.36c8.89 0 15-6.14 15-15V61.37c.02-4.54-2.23-8.88-7.49-11.42zM263.1 26.88h19.47a3.24 3.24 0 013.6 3.6v9.1c0 3-.85 3.6-3.6 3.6H263.1zM287 71.11a3.24 3.24 0 01-3.6 3.6h-20.3v-18h19c3 0 4.87.21 4.87 3.39zm79.36 3.38h-34.6V57.14h28.04V42.76h-28.04V27.09h34.6V12.71h-49.84v76.17h49.84V74.49zM395 62h23.7c8.89 0 15-6.14 15-15V27.73c0-8.89-6.14-15-15-15h-38.92v76.15H395zm0-34.91h19.89a3.24 3.24 0 013.6 3.6V44a3.24 3.24 0 01-3.6 3.6H395zm65.18 61.79h15.23v-62h19.89V12.71h-55.01v14.17h19.89v62zm84.21.42c8.89 0 15-6.14 15-15v-47c0-8.89-6.14-15-15-15h-25.5c-8.89 0-15 6.14-15 15v47c0 8.89 6.14 15 15 15zm-25.28-59a3.24 3.24 0 013.6-3.6h17.88a3.24 3.24 0 013.6 3.6v41a3.24 3.24 0 01-3.6 3.6H522.7a3.24 3.24 0 01-3.6-3.6zm125.03 58.58h49.84V74.49h-34.6V57.14h28.04V42.76h-28.04V27.09h34.6V12.71h-49.84v76.17zm59.5-62h19.89v62h15.23v-62h19.89V12.71h-55.01v14.17zm-110.9 40.47c.8-9.83 2.84-35.13 3.27-40.44h19.94v62h15.23V12.73H582l-1.25 14.17c-.45 4.89-2.42 26.41-2.76 31.55-.46 4.72-1.3 10.44-1.81 13.76a3 3 0 01-3 2.78h-5.41v13.74h4.65c15.33 0 19.37-10.73 20.32-21.38zM286.8 113.61h-38.93v76.17h15.23v-26.87h23.7c8.89 0 15-6.14 15-15v-19.28c.03-8.89-6.11-15.02-15-15.02zm-.21 31.32a3.24 3.24 0 01-3.6 3.6H263.1V128H283a3.24 3.24 0 013.6 3.6zm66.22-31.75h-25.5c-8.89 0-15 6.14-15 15v47c0 8.89 6.14 15 15 15h25.5c8.89 0 15-6.14 15-15v-47c.03-8.86-6.11-15-15-15zm-.21 59a3.24 3.24 0 01-3.6 3.6h-17.88a3.24 3.24 0 01-3.6-3.6v-41a3.24 3.24 0 013.6-3.6H349a3.24 3.24 0 013.6 3.6zm67.4-59h-24.07c-8.89 0-15 6.14-15 15v47c0 8.89 6.14 15 15 15H420c8.89 0 15-6.14 15-15v-12.27h-15.16v9.31a3.24 3.24 0 01-3.6 3.6h-16.5a3.24 3.24 0 01-3.6-3.6v-41a3.24 3.24 0 013.6-3.6h16.51a3.24 3.24 0 013.6 3.6v9.31h15.23v-12.32c-.01-8.89-6.14-15.03-15.08-15.03zm67 0h-24.14c-8.89 0-15 6.14-15 15v47c0 8.89 6.14 15 15 15H487c8.89 0 15-6.14 15-15v-12.27h-15.23v9.31a3.24 3.24 0 01-3.6 3.6h-16.5a3.24 3.24 0 01-3.59-3.6v-41a3.24 3.24 0 013.59-3.6h16.51a3.24 3.24 0 013.6 3.6v9.31H502v-12.32c0-8.89-6.13-15.03-15-15.03zm317.72-73.24h-21.78V12.71H767.7v76.17h37c8.89 0 15-6.14 15-15V55c.04-8.93-6.09-15.06-14.98-15.06zm-.21 31a3.24 3.24 0 01-3.59 3.6h-18V54.32h18a3.24 3.24 0 013.59 3.6zm25.67-58.23h15.42V88.8h-15.42zM630.29 114.22l-29.16 50.17v-50.17h-14.6v76.08h14.6l29.16-50.06v50.06H645v-76.08h-14.71zm-71.02 0l-29.15 50.17v-50.17h-14.6v76.08h14.6l29.15-50.06v50.06h14.71v-76.08h-14.71z"/>
</symbol>
<symbol xmlns="http://www.w3.org/2000/svg" id="logoUUAZ" viewBox="0 0 1085.0 208.0">
<g transform="translate(0.000000,208.000000) scale(0.100000,-0.100000)">

<path d="M1354 2055 c-361 -56 -639 -285 -762 -629 -53 -148 -56 -143 46 -84
82 48 91 57 120 112 114 220 344 400 577 453 116 26 322 23 430 -5 221 -59
396 -203 501 -412 l42 -82 93 -53 c84 -48 94 -52 97 -34 11 63 -88 277 -182
396 -149 187 -349 300 -601 338 -118 18 -249 18 -361 0z"/>
<path d="M1537 1790 c-3 -8 -40 -192 -81 -409 -41 -216 -76 -394 -78 -395 -2
-2 -291 10 -643 26 -352 15 -648 27 -658 25 -11 -1 315 -86 722 -189 l742
-186 307 84 c169 47 386 107 482 134 96 27 276 76 400 110 124 34 245 68 270
76 l45 14 -65 -5 c-216 -17 -1206 -85 -1238 -85 l-39 0 -68 348 c-91 465 -91
469 -98 452z"/>
<path d="M1352 1737 c-45 -26 -74 -49 -77 -62 -2 -11 -12 -81 -22 -155 l-18
-135 -45 0 -45 0 -3 105 c-1 58 -4 110 -5 117 -1 8 -112 -46 -145 -72 -3 -3
15 -199 24 -252 l5 -33 95 0 95 0 -3 -37 -3 -38 -87 -3 -88 -3 0 -39 c0 -71
-3 -70 146 -70 74 0 134 3 134 8 0 4 27 165 59 357 32 193 58 351 57 352 -1 1
-34 -17 -74 -40z"/>
<path d="M1640 1750 c0 -6 23 -118 50 -249 28 -131 50 -242 50 -245 0 -3 36
-6 81 -6 l80 0 -3 -32 -3 -33 -67 -3 c-76 -3 -76 -3 -57 -78 l11 -44 124 0
123 0 5 43 c3 23 7 132 8 241 l3 199 -62 34 -61 34 -7 -98 c-3 -54 -7 -109 -8
-123 -2 -19 -8 -26 -29 -28 -32 -4 -31 -9 -57 176 -11 74 -21 135 -23 136 -11
8 -151 86 -154 86 -2 0 -4 -5 -4 -10z"/>
<path d="M8650 1716 c0 -8 10 -27 23 -41 33 -39 100 -45 146 -13 19 12 38 33
42 46 8 20 6 22 -31 22 -22 0 -40 -4 -40 -9 0 -19 -41 -23 -59 -7 -23 20 -81
22 -81 2z"/>
<path d="M3430 1615 c0 -3 43 -73 96 -156 99 -157 109 -186 55 -176 -22 5 -34
0 -52 -19 l-24 -26 24 -19 c31 -26 91 -25 125 2 23 18 121 204 187 357 l18 42
-45 0 -44 0 -51 -107 c-58 -124 -45 -126 -132 19 l-52 87 -52 1 c-29 0 -53 -2
-53 -5z"/>
<path d="M3930 1603 c-1 -10 -5 -76 -9 -146 -10 -136 -24 -177 -61 -177 -17 0
-20 -7 -20 -46 l0 -47 43 7 c81 12 110 71 123 251 l7 85 68 0 69 0 0 -164 0
-164 45 -4 45 -3 0 212 0 213 -155 0 c-141 0 -155 -2 -155 -17z"/>
<path d="M4384 1413 c-96 -220 -97 -228 -37 -220 20 2 34 14 48 40 l20 37 93
0 93 0 15 -35 c13 -33 17 -35 60 -35 33 0 45 4 41 13 -3 6 -42 95 -87 197 -45
102 -84 191 -87 198 -3 6 -19 12 -37 12 -31 0 -32 0 -122 -207z m145 23 c39
-89 39 -86 -23 -86 -31 0 -56 3 -56 6 0 9 52 124 56 124 2 0 12 -20 23 -44z"/>
<path d="M4770 1411 c0 -225 -2 -217 55 -216 l30 0 3 88 3 88 97 -3 97 -3 3
-89 c3 -85 3 -88 25 -82 12 3 32 6 45 6 l22 0 0 210 0 210 -45 0 -45 0 0 -85
0 -85 -100 0 -100 0 0 85 0 85 -45 0 -45 0 0 -209z"/>
<path d="M5454 1598 c152 -236 184 -293 173 -306 -6 -8 -21 -12 -33 -9 -16 3
-31 -5 -49 -23 l-26 -27 25 -17 c39 -25 102 -21 132 9 22 22 194 364 194 386
0 5 -19 9 -43 9 l-43 0 -46 -102 c-26 -57 -50 -104 -55 -105 -4 -1 -36 45 -71
102 l-63 105 -55 0 c-54 0 -54 0 -40 -22z"/>
<path d="M5937 1511 c-3 -60 -13 -137 -23 -170 -14 -53 -20 -61 -40 -61 -23 0
-24 -3 -24 -80 l0 -80 40 0 c39 0 40 1 40 34 0 31 3 34 37 41 20 3 83 5 140 3
l103 -3 0 -37 c0 -38 0 -38 40 -38 l40 0 0 80 c0 79 0 80 -25 80 l-25 0 0 170
0 170 -149 0 -148 0 -6 -109z m223 -106 l0 -125 -85 0 c-47 0 -85 1 -85 3 0 1
7 34 15 72 8 39 15 94 15 123 l0 52 70 0 70 0 0 -125z"/>
<path d="M6420 1611 c-37 -11 -85 -38 -98 -54 -9 -11 -6 -19 18 -42 l29 -27
26 20 c56 44 148 40 197 -8 15 -16 28 -33 28 -39 0 -7 -34 -11 -95 -11 l-95 0
0 -40 0 -40 96 0 c94 0 95 0 88 -22 -23 -77 -134 -100 -221 -47 -32 20 -33 20
-58 2 -34 -25 -28 -42 29 -78 44 -27 58 -30 126 -30 68 0 82 3 125 30 59 37
87 88 93 166 7 98 -33 174 -113 210 -41 19 -128 24 -175 10z"/>
<path d="M6780 1407 l0 -212 45 3 45 4 0 84 0 84 95 0 95 0 0 -85 c0 -49 4
-86 10 -86 6 -1 17 -1 25 -1 60 0 55 -18 55 212 l0 210 -45 0 -45 0 0 -85 0
-85 -95 0 -95 0 0 85 0 85 -45 0 -45 0 0 -213z"/>
<path d="M7345 1604 c-84 -43 -131 -126 -123 -217 9 -113 80 -187 186 -195 73
-5 128 10 172 47 l35 30 -25 25 -25 25 -52 -25 c-66 -33 -123 -27 -165 18 -53
57 -45 157 15 202 39 29 115 29 154 0 l29 -22 31 28 31 28 -21 20 c-12 11 -36
27 -54 36 -42 21 -148 21 -188 0z"/>
<path d="M7670 1410 l0 -210 45 0 45 0 0 68 c0 54 4 73 18 85 17 15 22 11 82
-64 36 -45 72 -84 80 -89 15 -7 97 -7 104 1 2 2 -39 55 -91 117 l-96 114 94
94 94 94 -55 0 -55 0 -80 -80 c-44 -44 -83 -80 -87 -80 -5 0 -8 36 -8 80 l0
80 -45 0 -45 0 0 -210z"/>
<path d="M8102 1408 l3 -213 30 1 c17 1 33 2 36 3 4 1 50 55 103 121 53 66
101 120 106 120 6 0 10 -49 10 -120 l0 -120 45 0 45 0 0 210 0 210 -38 0 c-37
0 -41 -4 -136 -125 -53 -68 -101 -127 -107 -130 -5 -4 -9 45 -9 124 l0 131
-45 0 -45 0 2 -212z"/>
<path d="M8560 1410 l0 -210 24 -6 c14 -3 33 -3 43 1 10 3 63 63 118 133 l100
126 5 -129 5 -130 40 0 40 0 3 213 2 212 -37 -1 c-36 0 -42 -5 -135 -125 -54
-68 -102 -124 -108 -124 -6 0 -10 48 -10 125 l0 125 -45 0 -45 0 0 -210z"/>
<path d="M5230 1415 l0 -35 90 0 90 0 0 35 0 35 -90 0 -90 0 0 -35z"/>
<path d="M8190 989 c0 -6 15 -26 34 -45 29 -29 41 -34 81 -34 40 0 52 5 81 34
19 19 34 39 34 45 0 17 -77 14 -84 -4 -3 -8 -17 -15 -31 -15 -14 0 -28 7 -31
15 -7 18 -84 21 -84 4z"/>
<path d="M6288 880 c-99 -30 -171 -142 -153 -239 33 -175 228 -245 359 -130
83 73 97 186 35 283 -47 76 -152 113 -241 86z m141 -106 c37 -31 53 -85 42
-137 -11 -44 -25 -63 -62 -83 -59 -30 -136 -8 -164 46 -8 16 -15 52 -15 81 0
45 4 55 34 85 30 30 40 34 84 34 40 0 57 -6 81 -26z"/>
<path d="M8771 864 c-65 -33 -73 -50 -36 -80 28 -22 29 -22 52 -4 72 56 212
20 157 -41 -13 -15 -31 -19 -76 -19 l-59 0 3 -42 3 -41 57 -3 c72 -4 98 -17
98 -49 0 -32 -27 -45 -93 -45 -41 0 -63 6 -91 25 l-37 25 -30 -21 c-16 -11
-29 -25 -29 -30 0 -5 18 -22 41 -38 54 -39 133 -56 200 -42 63 14 93 34 113
76 23 49 20 89 -10 125 -25 29 -26 32 -9 50 21 23 23 85 6 119 -33 61 -170 80
-260 35z"/>
<path d="M10105 878 c-90 -31 -151 -127 -143 -223 17 -203 276 -273 392 -107
41 57 49 158 18 218 -52 101 -164 148 -267 112z m133 -91 c79 -38 81 -184 3
-230 -106 -62 -234 62 -177 171 36 70 104 93 174 59z"/>
<path d="M3592 853 c-6 -16 -46 -110 -90 -210 l-80 -183 45 0 c42 0 45 2 61
40 l17 40 92 0 93 0 20 -40 c19 -38 23 -40 65 -40 l44 0 -50 113 c-28 61 -69
156 -92 210 l-41 97 -37 0 c-31 0 -39 -4 -47 -27z m78 -170 c30 -69 28 -73
-35 -73 -30 0 -55 2 -55 4 0 18 54 125 61 120 5 -2 18 -25 29 -51z"/>
<path d="M3910 670 l0 -210 103 0 c131 1 175 11 210 50 36 41 38 106 3 146
-23 28 -23 28 -5 58 36 59 15 135 -42 155 -18 6 -85 11 -150 11 l-119 0 0
-210z m224 114 c40 -39 10 -64 -76 -64 l-68 0 0 40 0 40 64 0 c45 0 69 -5 80
-16z m-15 -150 c22 -5 33 -14 37 -31 11 -41 -16 -58 -94 -58 l-67 0 -3 33 c-5
53 2 62 51 62 25 0 59 -3 76 -6z"/>
<path d="M4320 670 l0 -210 38 0 c37 0 42 4 138 125 54 69 102 125 106 125 5
0 8 -56 8 -125 l0 -125 45 0 45 0 0 210 0 210 -39 0 c-38 0 -42 -3 -137 -125
-55 -69 -102 -125 -106 -125 -5 0 -8 56 -8 125 l0 125 -45 0 -45 0 0 -210z"/>
<path d="M4916 848 c-8 -18 -48 -111 -90 -206 -42 -95 -76 -175 -76 -178 0 -2
20 -4 43 -4 42 0 45 2 62 40 l18 40 92 0 93 0 16 -40 c15 -38 18 -40 61 -40
25 0 45 1 45 3 0 2 -40 95 -90 208 l-89 204 -36 3 c-32 3 -37 0 -49 -30z m79
-164 c14 -31 25 -60 25 -65 0 -5 -25 -9 -55 -9 -37 0 -55 4 -55 13 0 16 47
117 55 117 3 0 16 -25 30 -56z"/>
<path d="M5230 670 l0 -210 160 0 c121 0 160 -3 162 -12 0 -7 2 -17 3 -23 2
-5 3 -16 4 -22 1 -8 16 -13 41 -13 l40 0 0 75 c0 73 -1 75 -25 75 l-25 0 0
170 0 170 -45 0 -45 0 0 -170 0 -170 -90 0 -90 0 0 170 0 170 -45 0 -45 0 0
-210z"/>
<path d="M5690 670 l0 -210 38 0 c36 0 41 5 136 125 55 69 103 125 108 125 4
0 8 -56 8 -125 l0 -125 45 0 45 0 0 210 0 210 -40 0 c-38 0 -42 -3 -135 -120
-53 -66 -100 -120 -105 -120 -6 0 -10 50 -10 120 l0 120 -45 0 -45 0 0 -210z"/>
<path d="M6638 670 l-3 -210 43 0 42 0 0 85 0 85 100 0 100 0 0 -85 0 -85 45
0 45 0 0 210 0 210 -45 0 -45 0 0 -85 0 -86 -97 3 -98 3 -3 83 -3 82 -39 0
-39 0 -3 -210z"/>
<path d="M7100 670 l0 -210 45 0 45 0 0 85 0 85 95 0 95 0 0 -85 0 -85 45 0
45 0 0 210 0 210 -45 0 -45 0 0 -85 0 -85 -95 0 -95 0 0 85 0 85 -45 0 -45 0
0 -210z"/>
<path d="M7560 670 l0 -210 91 0 c162 0 226 33 236 123 11 98 -55 157 -175
157 l-62 0 0 70 0 70 -45 0 -45 0 0 -210z m199 -21 c39 -14 51 -51 26 -79 -14
-16 -31 -20 -77 -20 l-58 0 0 55 0 55 39 0 c21 0 52 -5 70 -11z"/>
<path d="M7940 670 l0 -210 40 0 40 0 0 210 0 210 -40 0 -40 0 0 -210z"/>
<path d="M8110 670 l0 -210 38 0 c36 0 41 4 136 125 55 69 103 125 108 125 4
0 8 -56 8 -125 l0 -125 45 0 45 0 0 211 0 210 -42 -3 c-41 -3 -45 -6 -133
-120 -49 -64 -96 -119 -102 -122 -10 -4 -13 23 -13 119 l0 125 -45 0 -45 0 0
-210z"/>
<path d="M9175 678 c-48 -112 -90 -206 -92 -210 -2 -5 17 -8 42 -8 45 0 47 1
62 40 l16 40 94 0 93 0 16 -40 c15 -38 18 -40 60 -40 24 0 44 3 44 8 0 4 -40
97 -88 207 l-88 200 -35 3 -36 3 -88 -203z m151 7 c13 -31 24 -60 24 -65 0 -6
-25 -10 -55 -10 -30 0 -55 4 -55 9 0 12 50 121 56 121 3 0 16 -25 30 -55z"/>
<path d="M9560 670 l0 -212 128 4 c96 3 135 8 159 21 64 34 83 122 38 175
l-24 29 20 40 c24 48 17 92 -18 125 -23 21 -34 23 -164 26 l-139 4 0 -212z
m228 121 c8 -5 12 -21 10 -37 -3 -29 -4 -29 -75 -32 l-73 -3 0 41 0 40 63 0
c34 0 68 -4 75 -9z m2 -164 c16 -8 25 -21 25 -37 0 -33 -36 -50 -107 -50 l-58
0 0 50 0 50 58 0 c31 0 68 -6 82 -13z"/>
<path d="M10490 808 c-1 -81 -22 -214 -39 -247 -7 -11 -21 -21 -31 -21 -18 0
-20 -7 -20 -75 l0 -75 40 0 c39 0 40 1 40 35 l0 35 140 0 140 0 0 -35 c0 -34
1 -35 40 -35 l40 0 0 74 c0 70 -1 75 -22 78 -23 3 -23 5 -26 171 l-2 167 -150
0 -150 0 0 -72z m218 -135 l-3 -128 -82 -3 c-46 -2 -83 1 -83 5 1 4 7 35 15
68 8 33 15 88 15 123 l0 62 70 0 71 0 -3 -127z"/>
<path d="M564 737 c112 -297 353 -559 605 -656 118 -46 192 -61 324 -68 282
-14 508 65 698 244 95 91 180 209 233 324 38 83 78 200 71 207 -10 10 -158
-64 -163 -81 -9 -34 -79 -171 -110 -216 -48 -71 -151 -169 -227 -216 -147 -92
-360 -137 -546 -116 -136 15 -201 34 -318 93 -164 82 -305 227 -395 406 -37
73 -38 74 -112 108 -41 19 -77 34 -79 34 -3 0 6 -28 19 -63z"/>
</g>
</symbol>
<symbol xmlns="http://www.w3.org/2000/svg" id="Logo" viewBox="0 0 127.5591 99.212601">
<g transform="translate(0.000000,99.212601) scale(1.00000,-1.00000) rotate(180deg);">
<path d="m 0.3404,50.4108 c 8.2542,2.234 0,0 63.2353,17.6232 63.1562,-17.6232 0,0 63.1562,-17.6232 l -54.9023,1.449 c -8.2658,-38.6294 0,0 -8.2658,-38.6294 l -7.5926,38.797 z M 17.1476,37.6583 c 8.767,-5.4618 3e-4,0 8.767,-5.4618 3.24,-5.2135 4.991,-9.0817 9.7478,-13.3847 19.8493,-17.8392 50.6682,-13.2088 61.8769,9.6968 1.5766,3.4228 1.8278,3.748 1.8278,3.748 9.4413,5.0473 0,0 9.4413,5.0473 C 105.4273,6.3771 62.6995,-11.9639 32.258,11.6535 27.2157,15.5653 18.093,27.7353 17.1476,37.6583 Z m 9.3583,31.178 c -0.934,-1.7366 -0.902,-1.5682 -2.133,-4.2137 0,0 0,0 -7.6666,-3.7596 0.4614,4.0269 4.7639,11.5659 6.7858,14.7203 8.4113,13.1233 22.0805,22.1204 39.3375,22.4617 23.6645,0.4683 42.0225,-16.2748 45.6948,-37.1628 l -7.6447,3.6854 C 95.7878,74.3669 94.2129,79.2031 85.8586,84.7474 67.3231,97.0489 38.7428,91.5851 26.5059,68.8363 Z m 31.5689,-54.1282 -7.0203,4.0003 -1.8717,14.4941 -4.1057,-0.2452 -0.3353,-10.7765 -7.2114,4.328 1.5622,13.2533 8.896,0.038 -0.2396,3.2658 -8.4004,0.0712 0.4323,5.7509 13.005,-0.2211 z m 18.917,12.5932 c -0.3917,-2.6047 -0.8303,-5.3076 -1.2263,-7.645 l -8.0158,-4.9482 c 5.1438,25.0206 4.0615,20.473 5.1438,25.0206 l 7.2003,0.1137 -0.2279,3.2947 -6.4747,-0.0142 1.6339,5.593 11.7077,-0.0034 0.7481,-22.8413 -6.3752,-2.8272 c -0.6658,11.0494 0,0 -0.6658,11.0494 -2.6935,-0.2545 -2.4219,-0.229 -2.4219,-0.229 -0.2353,-1.2181 -0.8357,-5.2977 -1.0262,-6.5631 z"/>
</symbol>
</svg>