<?xml version="1.0" standalone="no"?>
<!DOCTYPE svg PUBLIC "-//W3C//DTD SVG 20010904//EN"
 "http://www.w3.org/TR/2001/REC-SVG-20010904/DTD/svg10.dtd">
<svg version="1.0" xmlns="http://www.w3.org/2000/svg"
 width="866.000000pt" height="210.000000pt" viewBox="0 0 866.000000 210.000000"
 preserveAspectRatio="xMidYMid meet">
<symbol xmlns="http://www.w3.org/2000/svg" id="logo" viewBox="0 0 845.6 201.81">
<path d="M113.88 65.54L8.15 147.95a100.92 100.92 0 00190.19-47c0-1.39 0-2.77-.09-4.15zm25.39-56.48l-21.79 50.5 73.85 4.31a101.26 101.26 0 00-52.06-54.81zm-24.21-7.52A101 101 0 000 74.6l110.54-15.34zm179.68 48.41a12.45 12.45 0 006.67-11.43V27.73c0-8.89-6.14-15-15-15h-38.54v76.15h39.36c8.89 0 15-6.14 15-15V61.37c.02-4.54-2.23-8.88-7.49-11.42zM263.1 26.88h19.47a3.24 3.24 0 013.6 3.6v9.1c0 3-.85 3.6-3.6 3.6H263.1zM287 71.11a3.24 3.24 0 01-3.6 3.6h-20.3v-18h19c3 0 4.87.21 4.87 3.39zm79.36 3.38h-34.6V57.14h28.04V42.76h-28.04V27.09h34.6V12.71h-49.84v76.17h49.84V74.49zM395 62h23.7c8.89 0 15-6.14 15-15V27.73c0-8.89-6.14-15-15-15h-38.92v76.15H395zm0-34.91h19.89a3.24 3.24 0 013.6 3.6V44a3.24 3.24 0 01-3.6 3.6H395zm65.18 61.79h15.23v-62h19.89V12.71h-55.01v14.17h19.89v62zm84.21.42c8.89 0 15-6.14 15-15v-47c0-8.89-6.14-15-15-15h-25.5c-8.89 0-15 6.14-15 15v47c0 8.89 6.14 15 15 15zm-25.28-59a3.24 3.24 0 013.6-3.6h17.88a3.24 3.24 0 013.6 3.6v41a3.24 3.24 0 01-3.6 3.6H522.7a3.24 3.24 0 01-3.6-3.6zm125.03 58.58h49.84V74.49h-34.6V57.14h28.04V42.76h-28.04V27.09h34.6V12.71h-49.84v76.17zm59.5-62h19.89v62h15.23v-62h19.89V12.71h-55.01v14.17zm-110.9 40.47c.8-9.83 2.84-35.13 3.27-40.44h19.94v62h15.23V12.73H582l-1.25 14.17c-.45 4.89-2.42 26.41-2.76 31.55-.46 4.72-1.3 10.44-1.81 13.76a3 3 0 01-3 2.78h-5.41v13.74h4.65c15.33 0 19.37-10.73 20.32-21.38zM286.8 113.61h-38.93v76.17h15.23v-26.87h23.7c8.89 0 15-6.14 15-15v-19.28c.03-8.89-6.11-15.02-15-15.02zm-.21 31.32a3.24 3.24 0 01-3.6 3.6H263.1V128H283a3.24 3.24 0 013.6 3.6zm66.22-31.75h-25.5c-8.89 0-15 6.14-15 15v47c0 8.89 6.14 15 15 15h25.5c8.89 0 15-6.14 15-15v-47c.03-8.86-6.11-15-15-15zm-.21 59a3.24 3.24 0 01-3.6 3.6h-17.88a3.24 3.24 0 01-3.6-3.6v-41a3.24 3.24 0 013.6-3.6H349a3.24 3.24 0 013.6 3.6zm67.4-59h-24.07c-8.89 0-15 6.14-15 15v47c0 8.89 6.14 15 15 15H420c8.89 0 15-6.14 15-15v-12.27h-15.16v9.31a3.24 3.24 0 01-3.6 3.6h-16.5a3.24 3.24 0 01-3.6-3.6v-41a3.24 3.24 0 013.6-3.6h16.51a3.24 3.24 0 013.6 3.6v9.31h15.23v-12.32c-.01-8.89-6.14-15.03-15.08-15.03zm67 0h-24.14c-8.89 0-15 6.14-15 15v47c0 8.89 6.14 15 15 15H487c8.89 0 15-6.14 15-15v-12.27h-15.23v9.31a3.24 3.24 0 01-3.6 3.6h-16.5a3.24 3.24 0 01-3.59-3.6v-41a3.24 3.24 0 013.59-3.6h16.51a3.24 3.24 0 013.6 3.6v9.31H502v-12.32c0-8.89-6.13-15.03-15-15.03zm317.72-73.24h-21.78V12.71H767.7v76.17h37c8.89 0 15-6.14 15-15V55c.04-8.93-6.09-15.06-14.98-15.06zm-.21 31a3.24 3.24 0 01-3.59 3.6h-18V54.32h18a3.24 3.24 0 013.59 3.6zm25.67-58.23h15.42V88.8h-15.42zM630.29 114.22l-29.16 50.17v-50.17h-14.6v76.08h14.6l29.16-50.06v50.06H645v-76.08h-14.71zm-71.02 0l-29.15 50.17v-50.17h-14.6v76.08h14.6l29.15-50.06v50.06h14.71v-76.08h-14.71z"/>
</symbol>
</svg>
